<?xml version="1.0" standalone="no"?>
<!DOCTYPE svg PUBLIC "-//W3C//DTD SVG 20010904//EN"
 "http://www.w3.org/TR/2001/REC-SVG-20010904/DTD/svg10.dtd">
<svg version="1.0" xmlns="http://www.w3.org/2000/svg"
 width="700.000000pt" height="700.000000pt" viewBox="0 0 700.000000 700.000000"
 preserveAspectRatio="xMidYMid meet">
<metadata>
Created by potrace 1.14, written by Peter Selinger 2001-2017
</metadata>
<g transform="translate(0.000000,700.000000) scale(0.100000,-0.100000)"
fill="#000000" stroke="none">
<path d="M395 3622 l0 -2517 346 -3 346 -2 1 1877 c0 1033 1 1894 2 1913 1 28
3 31 9 15 5 -11 11 -42 15 -70 3 -27 8 -61 10 -75 3 -14 12 -74 21 -135 8 -60
20 -135 25 -165 5 -30 12 -75 15 -100 3 -25 8 -58 11 -75 3 -16 7 -41 9 -55 8
-63 17 -122 30 -200 8 -47 17 -105 20 -130 3 -25 10 -72 15 -105 5 -33 12 -78
15 -100 3 -22 10 -65 15 -95 5 -30 11 -71 14 -90 27 -191 47 -322 51 -332 2
-7 6 -33 9 -58 3 -25 18 -135 35 -245 17 -110 33 -218 36 -240 3 -22 7 -49 10
-60 2 -11 7 -42 10 -70 4 -27 8 -61 11 -75 2 -14 9 -56 14 -95 6 -38 12 -77
15 -85 2 -8 7 -42 10 -75 4 -32 8 -62 10 -65 2 -3 6 -29 9 -58 3 -29 8 -63 11
-75 2 -12 7 -38 9 -57 3 -19 15 -98 26 -175 12 -77 23 -156 26 -175 3 -19 9
-60 14 -90 5 -30 12 -75 15 -100 4 -25 14 -97 24 -160 l17 -115 331 -3 331 -2
7 42 c4 24 9 50 10 58 1 8 6 40 10 70 4 30 9 64 11 75 3 11 7 38 9 60 3 22 10
65 15 95 5 30 12 73 15 95 3 22 10 72 16 110 6 39 12 84 14 100 3 17 7 41 9
55 3 14 8 44 11 67 14 102 23 160 30 203 3 14 7 39 9 55 2 17 7 50 11 75 4 25
9 59 11 75 2 17 7 41 9 55 3 14 7 45 10 70 5 39 38 258 50 330 2 14 14 89 25
166 11 78 22 151 24 161 3 11 7 44 11 73 4 29 9 62 11 74 5 27 35 220 40 266
2 19 9 60 14 90 5 30 12 73 15 95 2 22 6 49 9 60 2 11 7 45 11 75 5 30 9 62
11 70 1 8 5 35 8 60 3 25 10 70 16 100 5 30 11 75 14 100 4 25 8 56 11 70 2
13 7 42 10 65 3 22 13 83 21 135 8 52 17 112 20 135 3 22 11 81 19 130 8 50
17 110 20 135 4 25 11 52 16 60 5 9 9 -782 9 -1897 l0 -1913 374 0 374 0 0
2520 0 2520 -563 0 -563 0 -6 -27 c-7 -33 -12 -69 -21 -138 -7 -59 -33 -239
-39 -275 -2 -14 -7 -52 -11 -85 -4 -32 -8 -67 -10 -76 -2 -9 -7 -40 -10 -70
-12 -88 -13 -92 -19 -139 -4 -25 -11 -79 -17 -120 -14 -102 -16 -118 -24 -170
-4 -25 -8 -56 -10 -70 -10 -72 -27 -188 -30 -210 -2 -14 -6 -45 -10 -70 -3
-25 -8 -62 -11 -83 -7 -48 -10 -70 -18 -137 -4 -30 -9 -66 -11 -80 -2 -14 -16
-108 -30 -210 -14 -102 -28 -196 -30 -210 -2 -14 -6 -43 -9 -65 -14 -111 -18
-135 -27 -195 -13 -80 -17 -111 -24 -175 -3 -27 -7 -61 -10 -75 -2 -14 -7 -43
-10 -65 -3 -22 -7 -51 -9 -65 -6 -35 -17 -119 -22 -155 -3 -25 -14 -99 -29
-205 -2 -14 -7 -47 -10 -75 -4 -27 -8 -61 -10 -75 -2 -14 -11 -79 -20 -145 -9
-66 -19 -127 -22 -135 -7 -19 -19 30 -33 135 -5 44 -12 94 -14 110 -13 79 -27
184 -32 225 -3 25 -7 55 -9 67 -3 19 -17 117 -30 211 -3 17 -7 47 -10 65 -2
17 -11 82 -20 142 -8 61 -20 142 -25 180 -13 90 -18 130 -25 183 -3 24 -7 53
-10 65 -2 12 -7 45 -10 72 -3 28 -15 111 -25 185 -25 173 -28 195 -36 255 -3
28 -8 60 -9 72 -2 13 -6 42 -10 65 -9 56 -12 83 -19 143 -4 28 -9 61 -11 75
-3 14 -7 41 -9 60 -3 19 -7 51 -10 70 -2 19 -7 56 -11 81 -3 25 -7 57 -9 70
-3 13 -7 46 -11 72 -4 27 -8 56 -9 65 -3 15 -11 77 -21 159 -2 13 -6 40 -9 60
-4 21 -8 54 -11 73 -7 59 -17 134 -21 154 -2 11 -8 56 -14 100 -10 74 -14 98
-25 176 -2 14 -9 67 -16 118 l-13 92 -565 0 -566 0 0 -2518z"/>
<path d="M4270 3620 l0 -2521 713 4 c391 2 728 7 747 11 19 4 60 11 90 17 199
37 401 141 529 271 114 116 217 304 256 468 21 86 37 178 43 240 9 97 9 2935
0 3020 -4 36 -12 90 -18 120 -6 30 -13 67 -15 81 -3 14 -17 62 -31 105 -126
376 -365 585 -769 675 -97 22 -120 22 -822 26 l-723 4 0 -2521z m1319 1785
c106 -28 183 -93 228 -192 53 -116 53 -95 50 -1633 l-3 -1425 -22 -67 c-43
-129 -117 -208 -230 -246 -52 -17 -88 -20 -304 -21 l-246 -2 0 1801 0 1801
238 -1 c165 -1 254 -5 289 -15z"/>
</g>
</svg>
