<svg width="42" height="42" viewBox="0 0 42 42" fill="none" xmlns="http://www.w3.org/2000/svg">
<path d="M40.5 21C40.5 31.7696 31.7696 40.5 21 40.5C10.2304 40.5 1.5 31.7696 1.5 21C1.5 10.2304 10.2304 1.5 21 1.5C31.7696 1.5 40.5 10.2304 40.5 21Z" stroke="#C1C1C1" stroke-width="3"/>
<path d="M17.7018 14.3451C17.7018 14.9102 17.7018 17.4302 17.7018 17.4302H15.4415V21.2025H17.7018V31.5422H22.3447V21.1949H25.4604C25.4604 21.1949 25.7506 19.3851 25.8956 17.4073C25.4909 17.4073 22.3677 17.4073 22.3677 17.4073C22.3677 17.4073 22.3677 15.2156 22.3677 14.8262C22.3677 14.4444 22.8716 13.9251 23.3756 13.9251C23.872 13.9251 24.9258 13.9251 25.9033 13.9251C25.9033 13.4135 25.9033 11.6342 25.9033 10C24.5975 10 23.116 10 22.4669 10C17.5873 10.0076 17.7018 13.78 17.7018 14.3451Z" fill="#C1C1C1"/>
</svg>
