<svg width="36" height="36" viewBox="0 0 36 36" fill="none" xmlns="http://www.w3.org/2000/svg">
<path d="M34.5 18C34.5 27.1127 27.1127 34.5 18 34.5C8.8873 34.5 1.5 27.1127 1.5 18C1.5 8.8873 8.8873 1.5 18 1.5C27.1127 1.5 34.5 8.8873 34.5 18Z" stroke="white" stroke-width="3"/>
<path d="M15.173 12.2959C15.173 12.7803 15.173 14.9403 15.173 14.9403H13.2355V18.1737H15.173V27.0363H19.1526V18.1672H21.8232C21.8232 18.1672 22.0719 16.6159 22.1963 14.9206C21.8494 14.9206 19.1723 14.9206 19.1723 14.9206C19.1723 14.9206 19.1723 13.0421 19.1723 12.7083C19.1723 12.381 19.6043 11.9359 20.0363 11.9359C20.4617 11.9359 21.365 11.9359 22.2028 11.9359C22.2028 11.4974 22.2028 9.97226 22.2028 8.57153C21.0835 8.57153 19.8137 8.57153 19.2574 8.57153C15.0748 8.57808 15.173 11.8115 15.173 12.2959Z" fill="white"/>
</svg>
