<svg width="36" height="36" viewBox="0 0 36 36" fill="none" xmlns="http://www.w3.org/2000/svg">
<path d="M35.9961 18C35.9961 20.5973 36.0034 23.1945 35.9961 25.799C35.9816 29.5716 34.2259 32.3647 31.0916 34.338C29.2561 35.4843 27.2174 35.9922 25.0553 35.9922C20.325 35.9922 15.6018 36.0139 10.8715 35.9849C7.58488 35.9631 4.75536 34.8024 2.51351 32.3647C1.12778 30.8557 0.300687 29.0782 0.0612659 27.0251C0.0104797 26.5898 0.00322452 26.1618 0.00322452 25.7265C0.00322452 20.5537 -0.00403065 15.381 0.00322452 10.2082C0.02499 6.42843 1.78074 3.63529 4.91498 1.66195C6.76504 0.508424 8.811 0.00783528 10.9876 0.00783528C15.7034 0.00783528 20.4193 -0.0139294 25.1351 0.0150902C28.4362 0.0368549 31.273 1.20489 33.5149 3.65705C34.8861 5.15882 35.7059 6.93627 35.9381 8.96764C36.0324 9.76568 35.9889 10.5637 35.9961 11.3545C36.0034 13.5745 35.9961 15.7873 35.9961 18ZM2.69489 18C2.69489 20.6626 2.68764 23.3178 2.69489 25.9804C2.70215 27.8086 3.36962 29.3829 4.61751 30.6888C6.29346 32.4373 8.38295 33.2861 10.7844 33.3006C15.5511 33.3296 20.3104 33.3079 25.0771 33.3079C26.6152 33.3079 28.0807 32.9741 29.4157 32.2051C31.9115 30.7759 33.319 28.672 33.319 25.7265C33.319 20.4884 33.319 15.2576 33.319 10.0196C33.319 8.20588 32.6587 6.63882 31.4181 5.34019C29.7567 3.5845 27.6599 2.72117 25.2657 2.70666C20.4483 2.67039 15.6381 2.69215 10.8207 2.69215C9.31886 2.69215 7.89685 3.04764 6.59092 3.78764C4.1024 5.22411 2.68764 7.32804 2.69489 10.2735C2.69489 12.849 2.69489 15.4245 2.69489 18Z" fill="white"/>
<path d="M18.0251 25.6902C13.3383 25.6902 9.5801 21.9467 9.58735 17.2745C9.59461 12.7257 13.4036 8.99666 18.0541 9.00392C22.7265 9.00392 26.4991 12.7547 26.4919 17.3833C26.4846 21.9684 22.6902 25.6902 18.0251 25.6902ZM18.0251 23.0059C21.2101 23.0059 23.8075 20.4739 23.8075 17.3616C23.8075 14.2347 21.2319 11.6882 18.0541 11.6882C14.8691 11.6882 12.2718 14.2202 12.2718 17.3325C12.2718 20.4594 14.8473 23.0059 18.0251 23.0059Z" fill="white"/>
<path d="M25.6938 8.32186C25.6938 7.29166 26.4846 6.4646 27.4713 6.4646C28.458 6.4646 29.2488 7.29891 29.2488 8.32186C29.2488 9.33029 28.458 10.1573 27.4858 10.1646C26.4991 10.1719 25.6938 9.35205 25.6938 8.32186Z" fill="white"/>
</svg>
