<svg width="38" height="41" viewBox="0 0 38 41" fill="none" xmlns="http://www.w3.org/2000/svg">
<path d="M37.996 20.3526C37.996 23.2893 38.0034 26.226 37.996 29.171C37.981 33.4366 36.1701 36.5948 32.9373 38.826C31.0441 40.1221 28.9413 40.6964 26.7113 40.6964C21.8323 40.6964 16.9608 40.721 12.0818 40.6882C8.69188 40.6635 5.77345 39.351 3.46115 36.5948C2.03187 34.8885 1.17879 32.8788 0.931844 30.5573C0.879461 30.0651 0.871978 29.5811 0.871978 29.0889C0.871978 23.2401 0.864495 17.3913 0.871978 11.5425C0.894428 7.26863 2.70535 4.11042 5.93808 1.87917C7.84629 0.574875 9.95654 0.00885935 12.2015 0.00885935C17.0655 0.00885935 21.9296 -0.01575 26.7937 0.0170625C30.1985 0.0416719 33.1244 1.36237 35.4367 4.13503C36.851 5.83308 37.6966 7.84284 37.9361 10.1397C38.0334 11.0421 37.9885 11.9444 37.996 12.8385C38.0034 15.3487 37.996 17.8507 37.996 20.3526ZM3.64823 20.3526C3.64823 23.3632 3.64075 26.3655 3.64823 29.376C3.65571 31.4432 4.34417 33.2233 5.63127 34.6999C7.35988 36.6768 9.51503 37.6366 11.992 37.653C16.9084 37.6858 21.8174 37.6612 26.7338 37.6612C28.3202 37.6612 29.8318 37.2839 31.2087 36.4143C33.7829 34.7983 35.2347 32.4194 35.2347 29.0889C35.2347 23.1663 35.2347 17.2518 35.2347 11.3292C35.2347 9.27839 34.5537 7.50652 33.2741 6.03816C31.5604 4.053 29.3978 3.07683 26.9284 3.06042C21.9595 3.01941 16.9982 3.04402 12.0294 3.04402C10.4804 3.04402 9.01366 3.44597 7.66669 4.28269C5.09997 5.90691 3.64075 8.28581 3.64823 11.6163C3.64823 14.5284 3.64823 17.4405 3.64823 20.3526Z" fill="#C1C1C1"/>
<path d="M19.4602 29.0479C14.6261 29.0479 10.7499 24.8151 10.7573 19.5323C10.7648 14.3889 14.6935 10.1725 19.4902 10.1807C24.3093 10.1807 28.2006 14.4218 28.1931 19.6553C28.1856 24.8397 24.2719 29.0479 19.4602 29.0479ZM19.4602 26.0128C22.7454 26.0128 25.4243 23.1499 25.4243 19.6307C25.4243 16.0952 22.7678 13.2159 19.4902 13.2159C16.2051 13.2159 13.5261 16.0788 13.5261 19.5979C13.5261 23.1335 16.1826 26.0128 19.4602 26.0128Z" fill="#C1C1C1"/>
<path d="M27.3699 9.40965C27.3699 8.2448 28.1855 7.30965 29.2032 7.30965C30.221 7.30965 31.0366 8.25301 31.0366 9.40965C31.0366 10.5499 30.221 11.485 29.2182 11.4932C28.2005 11.5014 27.3699 10.5745 27.3699 9.40965Z" fill="#C1C1C1"/>
</svg>
