<svg width="382" height="192" viewBox="0 0 382 192" fill="none" xmlns="http://www.w3.org/2000/svg">
<path d="M131.68 41V153H128.48V47.88L77.44 137.16H75.52L24.48 48.2V153H21.28V41H24L76.48 132.84L128.96 41H131.68ZM152.969 153H232.969V156.04H152.969V153ZM259.093 41H301.493C313.119 41 323.359 43.4 332.213 48.2C341.173 53 348.106 59.6667 353.013 68.2C358.026 76.7333 360.533 86.3333 360.533 97C360.533 107.667 358.026 117.267 353.013 125.8C348.106 134.333 341.173 141 332.213 145.8C323.359 150.6 313.119 153 301.493 153H259.093V41ZM301.173 149.96C312.373 149.96 322.186 147.72 330.613 143.24C339.146 138.653 345.706 132.36 350.293 124.36C354.986 116.253 357.333 107.133 357.333 97C357.333 86.8667 354.986 77.8 350.293 69.8C345.706 61.6933 339.146 55.4 330.613 50.92C322.186 46.3333 312.373 44.04 301.173 44.04H262.293V149.96H301.173Z" fill="#1E1E1E"/>
<path d="M166.087 178.469H156.749L154.702 183H153.437L160.843 166.9H162.016L169.422 183H168.157L166.087 178.469ZM165.65 177.48L161.418 168.188L157.209 177.48H165.65ZM179.413 172.029H174.721V183H173.571V172.029H168.879V170.994H179.413V172.029ZM191.549 177.273H181.222C181.253 178.208 181.49 179.044 181.935 179.78C182.38 180.501 182.978 181.06 183.729 181.459C184.496 181.858 185.354 182.057 186.305 182.057C187.087 182.057 187.808 181.919 188.467 181.643C189.142 181.352 189.701 180.93 190.146 180.378L190.813 181.137C190.292 181.766 189.632 182.249 188.835 182.586C188.053 182.923 187.202 183.092 186.282 183.092C185.086 183.092 184.02 182.831 183.085 182.31C182.15 181.789 181.414 181.068 180.877 180.148C180.356 179.228 180.095 178.178 180.095 176.997C180.095 175.832 180.34 174.789 180.831 173.869C181.337 172.934 182.027 172.205 182.901 171.684C183.775 171.163 184.756 170.902 185.845 170.902C186.934 170.902 187.907 171.163 188.766 171.684C189.64 172.19 190.322 172.903 190.813 173.823C191.319 174.743 191.572 175.786 191.572 176.951L191.549 177.273ZM185.845 171.914C185.002 171.914 184.243 172.106 183.568 172.489C182.893 172.857 182.349 173.386 181.935 174.076C181.536 174.751 181.306 175.517 181.245 176.376H190.445C190.399 175.517 190.169 174.751 189.755 174.076C189.341 173.401 188.797 172.872 188.122 172.489C187.447 172.106 186.688 171.914 185.845 171.914ZM204.422 170.994V183H203.272V172.029H197.016L196.855 175.226C196.763 176.882 196.625 178.27 196.441 179.389C196.257 180.508 195.942 181.413 195.498 182.103C195.053 182.793 194.44 183.138 193.658 183.138C193.428 183.138 193.098 183.084 192.669 182.977L192.784 181.988C193.029 182.049 193.213 182.08 193.336 182.08C193.98 182.08 194.47 181.766 194.808 181.137C195.145 180.508 195.375 179.726 195.498 178.791C195.62 177.856 195.72 176.637 195.797 175.134L196.004 170.994H204.422ZM214.197 175.364C215.685 175.379 216.819 175.709 217.601 176.353C218.383 176.982 218.774 177.909 218.774 179.136C218.774 180.409 218.36 181.382 217.532 182.057C216.704 182.732 215.501 183.061 213.921 183.046L209.39 183V170.994H210.54V175.318L214.197 175.364ZM213.898 182.126C215.11 182.141 216.03 181.896 216.658 181.39C217.287 180.884 217.601 180.133 217.601 179.136C217.601 178.17 217.295 177.457 216.681 176.997C216.068 176.522 215.14 176.269 213.898 176.238L210.54 176.215V182.08L213.898 182.126ZM232.338 177.273H222.011C222.042 178.208 222.279 179.044 222.724 179.78C223.169 180.501 223.767 181.06 224.518 181.459C225.285 181.858 226.143 182.057 227.094 182.057C227.876 182.057 228.597 181.919 229.256 181.643C229.931 181.352 230.49 180.93 230.935 180.378L231.602 181.137C231.081 181.766 230.421 182.249 229.624 182.586C228.842 182.923 227.991 183.092 227.071 183.092C225.875 183.092 224.809 182.831 223.874 182.31C222.939 181.789 222.203 181.068 221.666 180.148C221.145 179.228 220.884 178.178 220.884 176.997C220.884 175.832 221.129 174.789 221.62 173.869C222.126 172.934 222.816 172.205 223.69 171.684C224.564 171.163 225.545 170.902 226.634 170.902C227.723 170.902 228.696 171.163 229.555 171.684C230.429 172.19 231.111 172.903 231.602 173.823C232.108 174.743 232.361 175.786 232.361 176.951L232.338 177.273ZM226.634 171.914C225.791 171.914 225.032 172.106 224.357 172.489C223.682 172.857 223.138 173.386 222.724 174.076C222.325 174.751 222.095 175.517 222.034 176.376H231.234C231.188 175.517 230.958 174.751 230.544 174.076C230.13 173.401 229.586 172.872 228.911 172.489C228.236 172.106 227.477 171.914 226.634 171.914Z" fill="black"/>
</svg>
