<svg width="92" height="88" viewBox="0 0 92 88" fill="none" xmlns="http://www.w3.org/2000/svg">
<path d="M3.362 3.6H16.236L21.976 44.682H22.14L27.88 3.6H40.754V61H32.226V17.54H32.062L25.502 61H17.958L11.398 17.54H11.234V61H3.362V3.6ZM60.6179 3.6H74.3939C78.8765 3.6 82.2385 4.80266 84.4799 7.208C86.7212 9.61333 87.8419 13.1393 87.8419 17.786V46.814C87.8419 51.4607 86.7212 54.9867 84.4799 57.392C82.2385 59.7973 78.8765 61 74.3939 61H60.6179V3.6ZM74.2299 52.8C75.7059 52.8 76.8265 52.3627 77.5919 51.488C78.4119 50.6133 78.8219 49.192 78.8219 47.224V17.376C78.8219 15.408 78.4119 13.9867 77.5919 13.112C76.8265 12.2373 75.7059 11.8 74.2299 11.8H69.6379V52.8H74.2299Z" fill="white"/>
<path d="M43 65H58" stroke="#E0E0E0" stroke-width="3"/>
<path d="M18.087 79.469H8.749L6.702 84H5.437L12.843 67.9H14.016L21.422 84H20.157L18.087 79.469ZM17.65 78.48L13.418 69.188L9.209 78.48H17.65ZM31.4133 73.029H26.7213V84H25.5713V73.029H20.8793V71.994H31.4133V73.029ZM43.5491 78.273H33.2221C33.2527 79.2083 33.4904 80.044 33.9351 80.78C34.3797 81.5007 34.9777 82.0603 35.7291 82.459C36.4957 82.8577 37.3544 83.057 38.3051 83.057C39.0871 83.057 39.8077 82.919 40.4671 82.643C41.1417 82.3517 41.7014 81.93 42.1461 81.378L42.8131 82.137C42.2917 82.7657 41.6324 83.2487 40.8351 83.586C40.0531 83.9233 39.2021 84.092 38.2821 84.092C37.0861 84.092 36.0204 83.8313 35.0851 83.31C34.1497 82.7887 33.4137 82.068 32.8771 81.148C32.3557 80.228 32.0951 79.1777 32.0951 77.997C32.0951 76.8317 32.3404 75.789 32.8311 74.869C33.3371 73.9337 34.0271 73.2053 34.9011 72.684C35.7751 72.1627 36.7564 71.902 37.8451 71.902C38.9337 71.902 39.9074 72.1627 40.7661 72.684C41.6401 73.19 42.3224 73.903 42.8131 74.823C43.3191 75.743 43.5721 76.7857 43.5721 77.951L43.5491 78.273ZM37.8451 72.914C37.0017 72.914 36.2427 73.1057 35.5681 73.489C34.8934 73.857 34.3491 74.386 33.9351 75.076C33.5364 75.7507 33.3064 76.5173 33.2451 77.376H42.4451C42.3991 76.5173 42.1691 75.7507 41.7551 75.076C41.3411 74.4013 40.7967 73.8723 40.1221 73.489C39.4474 73.1057 38.6884 72.914 37.8451 72.914ZM56.4217 71.994V84H55.2717V73.029H49.0157L48.8547 76.226C48.7627 77.882 48.6247 79.2697 48.4407 80.389C48.2567 81.5083 47.9424 82.413 47.4977 83.103C47.053 83.793 46.4397 84.138 45.6577 84.138C45.4277 84.138 45.098 84.0843 44.6687 83.977L44.7837 82.988C45.029 83.0493 45.213 83.08 45.3357 83.08C45.9797 83.08 46.4704 82.7657 46.8077 82.137C47.145 81.5083 47.375 80.7263 47.4977 79.791C47.6204 78.8557 47.72 77.6367 47.7967 76.134L48.0037 71.994H56.4217ZM66.1973 76.364C67.6846 76.3793 68.8193 76.709 69.6013 77.353C70.3833 77.9817 70.7743 78.9093 70.7743 80.136C70.7743 81.4087 70.3603 82.3823 69.5323 83.057C68.7043 83.7317 67.5006 84.0613 65.9213 84.046L61.3903 84V71.994H62.5403V76.318L66.1973 76.364ZM65.8983 83.126C67.1096 83.1413 68.0296 82.896 68.6583 82.39C69.2869 81.884 69.6013 81.1327 69.6013 80.136C69.6013 79.17 69.2946 78.457 68.6813 77.997C68.0679 77.5217 67.1403 77.2687 65.8983 77.238L62.5403 77.215V83.08L65.8983 83.126ZM84.3381 78.273H74.0111C74.0418 79.2083 74.2795 80.044 74.7241 80.78C75.1688 81.5007 75.7668 82.0603 76.5181 82.459C77.2848 82.8577 78.1435 83.057 79.0941 83.057C79.8761 83.057 80.5968 82.919 81.2561 82.643C81.9308 82.3517 82.4905 81.93 82.9351 81.378L83.6021 82.137C83.0808 82.7657 82.4215 83.2487 81.6241 83.586C80.8421 83.9233 79.9911 84.092 79.0711 84.092C77.8751 84.092 76.8095 83.8313 75.8741 83.31C74.9388 82.7887 74.2028 82.068 73.6661 81.148C73.1448 80.228 72.8841 79.1777 72.8841 77.997C72.8841 76.8317 73.1295 75.789 73.6201 74.869C74.1261 73.9337 74.8161 73.2053 75.6901 72.684C76.5641 72.1627 77.5455 71.902 78.6341 71.902C79.7228 71.902 80.6965 72.1627 81.5551 72.684C82.4291 73.19 83.1115 73.903 83.6021 74.823C84.1081 75.743 84.3611 76.7857 84.3611 77.951L84.3381 78.273ZM78.6341 72.914C77.7908 72.914 77.0318 73.1057 76.3571 73.489C75.6825 73.857 75.1381 74.386 74.7241 75.076C74.3255 75.7507 74.0955 76.5173 74.0341 77.376H83.2341C83.1881 76.5173 82.9581 75.7507 82.5441 75.076C82.1301 74.4013 81.5858 73.8723 80.9111 73.489C80.2365 73.1057 79.4775 72.914 78.6341 72.914Z" fill="#C1C1C1"/>
</svg>
