<svg width="42" height="42" viewBox="0 0 42 42" fill="none" xmlns="http://www.w3.org/2000/svg">
<path d="M30.0796 12.5123C29.8165 12.0032 29.374 11.6667 28.8745 11.6667H13.1251C12.6362 11.6667 12.2038 11.9913 11.9387 12.4826L21.0287 22.4962L30.0796 12.5123Z" fill="#C1C1C1"/>
<path d="M11.6667 14.1892V28.4064C11.6667 29.4663 12.3231 30.3334 13.1253 30.3334H28.8747C29.677 30.3334 30.3334 29.4663 30.3334 28.4064V14.2405L21.0289 24.5034L11.6667 14.1892Z" fill="#C1C1C1"/>
<path d="M40.5 21C40.5 31.7696 31.7696 40.5 21 40.5C10.2304 40.5 1.5 31.7696 1.5 21C1.5 10.2304 10.2304 1.5 21 1.5C31.7696 1.5 40.5 10.2304 40.5 21Z" stroke="#C1C1C1" stroke-width="3"/>
</svg>
