<svg width="36" height="36" viewBox="0 0 36 36" fill="none" xmlns="http://www.w3.org/2000/svg">
<path d="M25.7826 10.7248C25.557 10.2884 25.1777 10 24.7496 10H11.2501C10.831 10 10.4604 10.2782 10.2332 10.6993L18.0246 19.2824L25.7826 10.7248Z" fill="white"/>
<path d="M10 12.1621V24.3483C10 25.2567 10.5626 26 11.2502 26H24.7498C25.4374 26 26 25.2567 26 24.3483V12.206L18.0248 21.0029L10 12.1621Z" fill="white"/>
<path d="M34.5 18C34.5 27.1127 27.1127 34.5 18 34.5C8.8873 34.5 1.5 27.1127 1.5 18C1.5 8.8873 8.8873 1.5 18 1.5C27.1127 1.5 34.5 8.8873 34.5 18Z" stroke="white" stroke-width="3"/>
</svg>
