<svg width="42" height="42" viewBox="0 0 42 42" fill="none" xmlns="http://www.w3.org/2000/svg">
<path d="M39.6347 21C39.6347 31.8021 31.0847 40.5 20.6095 40.5C10.1343 40.5 1.58423 31.8021 1.58423 21C1.58423 10.1979 10.1343 1.5 20.6095 1.5C31.0847 1.5 39.6347 10.1979 39.6347 21Z" stroke="#C1C1C1" stroke-width="3"/>
<path d="M18.3511 24.4342L17.9055 29.5173C17.9055 29.5173 17.719 31.0745 19.1696 29.5173C20.6202 27.9601 22.0087 26.7588 22.0087 26.7588" fill="#C1C1C1"/>
<path d="M15.3156 22.9119L10.5418 21.242C10.5418 21.242 9.97199 20.9938 10.155 20.4301C10.1928 20.3139 10.2689 20.2151 10.4969 20.0445C11.5549 19.2531 30.0768 12.1065 30.0768 12.1065C30.0768 12.1065 30.5999 11.9175 30.9091 12.0431C31.0503 12.1006 31.1405 12.1655 31.2164 12.4026C31.2441 12.4889 31.26 12.6724 31.2579 12.855C31.2562 12.9867 31.2413 13.1086 31.2304 13.2999C31.1176 15.254 27.7422 29.8362 27.7422 29.8362C27.7422 29.8362 27.5403 30.6895 26.8166 30.7185C26.5527 30.7292 26.2324 30.6717 25.8495 30.3181C24.4295 29.0069 19.5211 25.4659 18.4367 24.6873C18.3753 24.6435 18.3581 24.5864 18.3476 24.5307C18.3324 24.4488 18.414 24.3466 18.414 24.3466C18.414 24.3466 26.9605 16.1913 27.188 15.3357C27.2056 15.2693 27.1394 15.2365 27.0497 15.2652C26.4821 15.4894 16.6417 22.1596 15.5558 22.8964C15.4923 22.9395 15.3143 22.9117 15.3143 22.9117" fill="#C1C1C1"/>
</svg>
