<svg width="36" height="36" viewBox="0 0 36 36" fill="none" xmlns="http://www.w3.org/2000/svg">
<ellipse cx="18" cy="18" rx="16" ry="16" stroke="#E0E0E0" stroke-width="3"/>
<path d="M16.2397 20.6172L15.8923 24.49C15.8923 24.49 15.7469 25.6765 16.8777 24.49C18.0085 23.3036 19.0909 22.3883 19.0909 22.3883" fill="#E0E0E0"/>
<path d="M13.8733 19.4572L10.152 18.1849C10.152 18.1849 9.70784 17.9958 9.85051 17.5663C9.87998 17.4778 9.9393 17.4025 10.117 17.2725C10.9418 16.6695 25.3801 11.2245 25.3801 11.2245C25.3801 11.2245 25.7879 11.0805 26.0289 11.1762C26.139 11.22 26.2093 11.2695 26.2685 11.4501C26.2901 11.5159 26.3025 11.6557 26.3008 11.7948C26.2995 11.8952 26.2879 11.988 26.2793 12.1338C26.1915 13.6226 23.5602 24.7328 23.5602 24.7328C23.5602 24.7328 23.4028 25.383 22.8387 25.4051C22.633 25.4133 22.3833 25.3695 22.0848 25.1C20.9779 24.101 17.1516 21.4031 16.3063 20.8099C16.2585 20.7765 16.245 20.733 16.2369 20.6905C16.225 20.6282 16.2886 20.5503 16.2886 20.5503C16.2886 20.5503 22.9509 14.3368 23.1282 13.6848C23.1419 13.6343 23.0903 13.6093 23.0204 13.6312C22.5779 13.802 14.9071 18.884 14.0606 19.4454C14.0111 19.4782 13.8723 19.4571 13.8723 19.4571" fill="#E0E0E0"/>
</svg>
