<svg width="38" height="41" viewBox="0 0 38 41" fill="none" xmlns="http://www.w3.org/2000/svg">
<path d="M37.0669 19.5948C37.0594 23.1467 36.356 26.2803 34.9342 29.1924C33.5947 31.9405 31.7464 34.2292 29.4191 36.0339C27.3762 37.6171 25.1388 38.6999 22.6918 39.2577C19.9829 39.8729 17.274 39.8073 14.5875 39.1018C13.1657 38.7245 11.8038 38.1503 10.5241 37.3874C10.3071 37.2561 10.12 37.2479 9.88807 37.3299C7.06692 38.3225 4.24576 39.3069 1.42461 40.2913C1.10283 40.4061 0.788542 40.5128 0.466766 40.644C0.242271 40.7342 0.227305 40.644 0.28717 40.4389C0.616429 39.3807 0.938205 38.3225 1.26746 37.2561C1.97088 34.951 2.6743 32.646 3.39268 30.3491C3.48996 30.0456 3.34778 29.8487 3.23554 29.6354C2.35252 27.9538 1.72394 26.1655 1.33481 24.2788C0.489215 20.21 0.788542 16.2233 2.21034 12.3596C3.03349 10.1284 4.20835 8.12682 5.71246 6.35495C7.62815 4.09088 9.89555 2.42565 12.5147 1.31003C14.9617 0.268229 17.491 -0.133725 20.0951 0.0385411C23.6646 0.276432 26.9123 1.57253 29.7634 3.93503C33.4526 6.98659 35.7723 10.9979 36.7002 15.9772C36.9472 17.2487 37.037 18.5366 37.0669 19.5948ZM18.8454 3.36081C18.1495 3.32799 17.3338 3.41823 16.5182 3.54948C16.1964 3.5987 15.8821 3.67253 15.5678 3.76276C10.7037 5.11628 7.2091 8.29909 5.15123 13.3112C3.9614 16.2069 3.63963 19.2667 4.08862 22.4003C4.44033 24.8776 5.27844 27.1581 6.58799 29.2171C6.73017 29.4467 6.75262 29.6436 6.67031 29.8979C6.11656 31.678 5.57777 33.4663 5.0315 35.2546C5.00156 35.353 4.91177 35.4678 4.99408 35.5581C5.0764 35.6565 5.18116 35.5499 5.27096 35.5171C6.90977 34.9428 8.54858 34.3768 10.1724 33.778C10.5466 33.6385 10.816 33.7042 11.1378 33.9174C14.812 36.3374 18.7407 36.9772 22.8788 35.7714C26.0218 34.8608 28.6109 32.9823 30.6613 30.2096C32.6444 27.5272 33.7519 24.4592 33.9764 21.0303C34.1485 18.3971 33.7743 15.8378 32.8165 13.3932C31.6117 10.3171 29.7334 7.85612 27.1966 6.02682C24.7122 4.23854 21.9659 3.31979 18.8454 3.36081Z" fill="#C1C1C1"/>
<path d="M9.91052 15.0749C9.94046 13.2292 10.599 11.7116 11.8861 10.5303C12.2528 10.194 12.6943 10.0546 13.1807 10.1448C13.3902 10.1776 13.6072 10.2104 13.8093 10.1858C14.3181 10.1448 14.61 10.4565 14.7671 10.9159C15.246 12.294 15.71 13.6803 16.1814 15.0585C16.2712 15.321 16.2488 15.5589 16.1365 15.8049C15.8447 16.4694 15.3807 16.9862 14.9168 17.503C14.5127 17.9542 14.4902 18.1018 14.7671 18.6514C16.1066 21.3092 17.9549 23.3764 20.5142 24.6315C20.6414 24.6889 20.7536 24.7874 20.8734 24.8448C21.1951 25.0171 21.487 25.0007 21.7564 24.6971C22.2802 24.1147 22.7666 23.4913 23.238 22.8514C23.6047 22.351 23.7768 22.2772 24.2932 22.5315C25.5503 23.1714 26.7477 23.9178 27.9674 24.6397C28.3715 24.8776 28.4164 25.2057 28.3565 25.8046C28.1096 28.2409 26.4109 29.3483 24.4728 29.701C23.8217 29.8159 23.2081 29.7503 22.5945 29.537C20.7985 28.9135 19.0325 28.1917 17.4461 27.0596C15.9644 26.0014 14.6923 24.6807 13.5773 23.1796C12.4922 21.7112 11.5269 20.1608 10.7262 18.4792C10.2772 17.5194 9.91052 16.0264 9.91052 15.0749Z" fill="#C1C1C1"/>
</svg>
