<svg width="36" height="36" viewBox="2 0 36 36" fill="none" xmlns="http://www.w3.org/2000/svg">
<g filter="url(#filter0_d)">
<path d="M36.1729 15.4142C36.1663 18.2083 35.5548 20.6734 34.3188 22.9642C33.1544 25.1259 31.5475 26.9263 29.5244 28.3459C27.7484 29.5914 25.8033 30.4432 23.6761 30.882C21.3211 31.3659 18.9662 31.3143 16.6308 30.7594C15.3947 30.4625 14.2108 30.0108 13.0983 29.4107C12.9097 29.3074 12.7471 29.301 12.5454 29.3655C10.0929 30.1463 7.64034 30.9207 5.18782 31.695C4.90809 31.7854 4.63487 31.8693 4.35514 31.9725C4.15998 32.0435 4.14697 31.9725 4.19901 31.8112C4.48525 30.9788 4.76498 30.1463 5.05121 29.3074C5.66272 27.4942 6.27422 25.6809 6.89873 23.874C6.9833 23.6353 6.8597 23.4804 6.76212 23.3126C5.99449 21.9898 5.44804 20.583 5.10976 19.0988C4.37465 15.8982 4.63487 12.762 5.87089 9.72268C6.58648 7.96747 7.60782 6.39295 8.9154 4.9991C10.5808 3.21809 12.5519 1.90813 14.8288 1.03053C16.956 0.211001 19.1548 -0.105194 21.4187 0.0303183C24.5218 0.217454 27.3451 1.23702 29.8236 3.09548C33.0308 5.49598 35.0474 8.65149 35.8541 12.5684C36.0688 13.5686 36.1468 14.5818 36.1729 15.4142ZM20.3323 2.64377C19.7273 2.61796 19.0182 2.68894 18.3091 2.79219C18.0294 2.83091 17.7562 2.88898 17.483 2.95997C13.2545 4.02471 10.2165 6.52846 8.42749 10.4712C7.39314 12.7491 7.11341 15.1561 7.50373 17.6211C7.80948 19.5699 8.53808 21.3638 9.67652 22.9835C9.80012 23.1642 9.81964 23.3191 9.74808 23.5191C9.26668 24.9194 8.7983 26.3262 8.32341 27.7329C8.29739 27.8104 8.21932 27.9007 8.29088 27.9717C8.36244 28.0491 8.45351 27.9652 8.53158 27.9394C9.95625 27.4877 11.3809 27.0424 12.7926 26.5714C13.1179 26.4617 13.3521 26.5133 13.6318 26.6811C16.8259 28.5847 20.2412 29.088 23.8387 28.1395C26.5709 27.4232 28.8218 25.9454 30.6043 23.7643C32.3282 21.6542 33.291 19.2408 33.4861 16.5435C33.6358 14.4721 33.3105 12.4587 32.4778 10.5358C31.4304 8.11589 29.7976 6.18 27.5923 4.74099C25.4325 3.33424 23.045 2.61151 20.3323 2.64377Z" fill="#E0E0E0"/>
<path d="M12.5649 11.8588C12.591 10.4069 13.1634 9.2131 14.2824 8.28388C14.6011 8.0193 14.9849 7.9096 15.4078 7.98059C15.5899 8.0064 15.7786 8.03221 15.9542 8.01285C16.3966 7.98059 16.6503 8.2258 16.7869 8.58717C17.2033 9.67126 17.6066 10.7618 18.0164 11.8459C18.0945 12.0524 18.075 12.2395 17.9774 12.4331C17.7237 12.9558 17.3204 13.3624 16.917 13.7689C16.5657 14.1238 16.5462 14.24 16.7869 14.6723C17.9514 16.7631 19.5582 18.3892 21.783 19.3765C21.8936 19.4217 21.9912 19.4991 22.0953 19.5443C22.375 19.6798 22.6287 19.6669 22.8629 19.4282C23.3183 18.97 23.7412 18.4796 24.151 17.9762C24.4698 17.5826 24.6194 17.5245 25.0682 17.7246C26.1611 18.2279 27.202 18.8151 28.2624 19.383C28.6137 19.5701 28.6527 19.8282 28.6007 20.2993C28.386 22.2158 26.9093 23.087 25.2244 23.3645C24.6584 23.4548 24.125 23.4032 23.5915 23.2354C22.0302 22.745 20.495 22.1771 19.1158 21.2866C17.8278 20.4542 16.7219 19.4152 15.7526 18.2344C14.8093 17.0793 13.9701 15.8597 13.274 14.5368C12.8837 13.7818 12.5649 12.6074 12.5649 11.8588Z" fill="#E0E0E0"/>
</g>
<defs>
<filter id="filter0_d" x="0.172852" y="0" width="40" height="40" filterUnits="userSpaceOnUse" color-interpolation-filters="sRGB">
<feFlood flood-opacity="0" result="BackgroundImageFix"/>
<feColorMatrix in="SourceAlpha" type="matrix" values="0 0 0 0 0 0 0 0 0 0 0 0 0 0 0 0 0 0 127 0" result="hardAlpha"/>
<feOffset dy="4"/>
<feGaussianBlur stdDeviation="2"/>
<feComposite in2="hardAlpha" operator="out"/>
<feColorMatrix type="matrix" values="0 0 0 0 0 0 0 0 0 0 0 0 0 0 0 0 0 0 0.25 0"/>
<feBlend mode="normal" in2="BackgroundImageFix" result="effect1_dropShadow"/>
<feBlend mode="normal" in="SourceGraphic" in2="effect1_dropShadow" result="shape"/>
</filter>
</defs>
</svg>
